PathFileType	4	(X/Y/Z)	C:\Users\Basilio\Documents\Thesis Gigler\squatting_fais\c3dfiles\054\SLS_back_pre5\markers_experimental.trc
DataRate	CameraRate	NumFrames	NumMarkers	Units	OrigDataRate	OrigDataStartFrame	OrigNumFrames
200.000000	200.000000	4	61	mm	200.000000	1295	1480
Frame#	Time	FHD			LBHD			RBHD			C7			T10			CLAV			LSHO			LUUPA			LMUPA			LDUPA			LLEP			LMEP			LRAD			LUL			LRFIN			RSHO			RUPA1			RMUPA			RDUPA			RLEP			RMEP			RRAD			RUL			RUFIN			LASI			RASI			USACR			LSACR			RSACR			LTHI1			LTHI2			LTHI3			LTHI4			LLFC			LMFC			LTIB1			LTIB2			LTIB3			LTIB4			LLMAL			LMMAL			LHEE			LMT1			LMT2			LMT5			RTHI			RTHI2			RTHI3			RTHI4			RLFC			RMFC			RTIB1			RTIB2			RTIB3			RTIB4			RLMAL			RMMAL			RHEE			RMT1			RMT2			RMT5			
		X1	Y1	Z1	X2	Y2	Z2	X3	Y3	Z3	X4	Y4	Z4	X5	Y5	Z5	X6	Y6	Z6	X7	Y7	Z7	X8	Y8	Z8	X9	Y9	Z9	X10	Y10	Z10	X11	Y11	Z11	X12	Y12	Z12	X13	Y13	Z13	X14	Y14	Z14	X15	Y15	Z15	X16	Y16	Z16	X17	Y17	Z17	X18	Y18	Z18	X19	Y19	Z19	X20	Y20	Z20	X21	Y21	Z21	X22	Y22	Z22	X23	Y23	Z23	X24	Y24	Z24	X25	Y25	Z25	X26	Y26	Z26	X27	Y27	Z27	X28	Y28	Z28	X29	Y29	Z29	X30	Y30	Z30	X31	Y31	Z31	X32	Y32	Z32	X33	Y33	Z33	X34	Y34	Z34	X35	Y35	Z35	X36	Y36	Z36	X37	Y37	Z37	X38	Y38	Z38	X39	Y39	Z39	X40	Y40	Z40	X41	Y41	Z41	X42	Y42	Z42	X43	Y43	Z43	X44	Y44	Z44	X45	Y45	Z45	X46	Y46	Z46	X47	Y47	Z47	X48	Y48	Z48	X49	Y49	Z49	X50	Y50	Z50	X51	Y51	Z51	X52	Y52	Z52	X53	Y53	Z53	X54	Y54	Z54	X55	Y55	Z55	X56	Y56	Z56	X57	Y57	Z57	X58	Y58	Z58	X59	Y59	Z59	X60	Y60	Z60	X61	Y61	Z61	

1296	6.475000000000001	-196.1534118652344	1777.919677734375	-833.6666259765627	-362.9058227539063	1730.078247070313	-901.0119628906252	-374.4549255371094	1728.398559570313	-761.0547485351564	-402.2976379394532	1547.525634765625	-821.666442871094	-393.7132873535157	1216.521118164063	-829.4683227539065	-252.9397583007813	1505.216796875	-835.1892089843752	-337.7908935546876	1550.171264648438	-983.687438964844	-194.5180053710938	1418.962280273438	-1112.332275390625	-159.0565948486328	1452.348876953125	-1102.954467773438	-127.7221908569336	1407.030517578125	-1127.49951171875	-67.86299133300783	1407.684692382813	-1127.266479492188	-67.92288970947267	1344.3134765625	-1077.917236328125	176.4740142822266	1446.203002929688	-1020.078186035156	204.3254089355469	1409.175415039063	-1083.097900390625	264.3365173339844	1478.13916015625	-1030.067749023438	-318.9391174316407	1547.447021484375	-680.2446899414064	-168.1237335205078	1406.902099609375	-562.6112670898439	-130.9314270019532	1436.22265625	-570.1821289062501	-101.5061340332032	1384.922973632813	-553.2659301757814	-56.0149383544922	1376.432006835938	-555.5003662109376	-61.22906494140626	1327.06689453125	-615.4983520507814	179.5937957763672	1474.257690429688	-688.6398315429689	198.8043212890626	1435.575561523438	-622.2054443359376	252.213119506836	1515.212768554688	-680.8122558593751	-200.0837402343751	1062.399291992188	-970.6021728515627	-183.6784057617188	1061.04296875	-714.3622436523439	-385.4319458007814	1133.531372070313	-829.4606933593752	-390.8333129882814	1101.2822265625	-857.432312011719	-385.649139404297	1099.918212890625	-801.2514648437502	-303.9593811035157	830.9348754882815	-1063.846313476563	-274.6647033691407	750.9909057617189	-1072.95166015625	-227.5923767089844	752.7794799804689	-1069.907470703125	-304.9511108398438	697.9807739257814	-1059.721923828125	-309.4686279296876	543.9841918945314	-1055.024536132813	-263.7230224609376	520.2217407226564	-924.8203125000002	-270.7778625488282	373.9252014160157	-1029.722290039063	-328.0465698242188	338.2657470703126	-1089.457885742188	-287.2261352539063	330.9657897949219	-1067.015380859375	-293.9875183105469	249.3702850341797	-1043.827514648438	-357.6317138671876	116.0035934448242	-1094.688720703125	-324.7927246093751	131.4236755371094	-1003.739990234375	-427.7837829589845	103.8586883544922	-1040.581298828125	-215.8535919189454	57.05080413818361	-1020.381103515625	-208.7846221923829	55.26176834106447	-1070.101806640625	-260.8020629882813	39.78403472900391	-1120.941528320313	-295.2567443847657	755.2813720703126	-651.4226074218751	-265.9410095214844	696.5402221679689	-656.6551513671876	-232.8857421875001	693.9017944335939	-660.6930541992189	-303.1169128417969	624.6486206054689	-676.8432006835939	-326.9835510253907	531.9013671875001	-684.8541259765626	-274.6331481933594	533.8313598632814	-816.4248046875002	-274.8615112304688	423.4255981445314	-694.4649047851564	-346.1639099121094	350.5634765625001	-663.5601806640626	-300.6386718750001	342.9521484375001	-672.0880126953126	-285.9139404296876	292.9731445312501	-697.1913452148439	-341.5014038085938	113.8294754028321	-682.2584228515626	-301.2683715820313	132.2606201171875	-767.0111694335939	-400.7207641601564	89.94466400146486	-744.0348510742189	-179.5084228515625	55.19499969482423	-752.4565429687501	-179.2088775634766	53.06782531738283	-704.7732543945314	-229.7938842773438	34.69602584838868	-658.1398925781251	
1297	6.48	-196.3324279785157	1777.91845703125	-833.9267578125002	-363.0266418457032	1730.09375	-901.276794433594	-374.5612182617188	1728.414184570313	-761.3365478515626	-402.4155273437501	1547.503173828125	-821.8880615234377	-393.7415771484376	1216.496704101563	-829.6773071289065	-252.9876098632813	1505.279907226563	-835.384460449219	-337.9286804199219	1550.1953125	-983.966735839844	-194.4656372070313	1418.994750976563	-1112.556640625	-159.154541015625	1452.445556640625	-1103.22607421875	-127.6095886230469	1407.119018554688	-1127.949584960938	-67.95875549316408	1407.712524414063	-1127.507690429688	-68.0221633911133	1344.291137695313	-1078.160400390625	176.3984680175782	1446.21533203125	-1020.189575195313	204.2748413085938	1409.28271484375	-1083.162719726563	264.3669738769532	1478.150756835938	-1030.182739257813	-319.1228027343751	1547.389526367188	-680.4869995117189	-168.4012756347657	1406.863647460938	-562.8191528320314	-131.100570678711	1436.19140625	-570.3940429687501	-101.663314819336	1384.899291992188	-553.5362548828126	-56.23900985717775	1376.385375976563	-555.7297973632814	-61.58559799194337	1327.034545898438	-616.1314086914064	178.9440460205078	1474.343017578125	-688.4287719726564	198.5469512939454	1435.500366210938	-622.3371582031251	251.9099426269532	1515.140625	-680.9200439453126	-200.2063446044922	1062.372192382813	-970.6567382812502	-183.8726959228516	1061.11572265625	-714.4121093750001	-385.5450744628907	1133.501586914063	-829.8303833007815	-390.8369750976564	1101.320190429688	-857.8442993164065	-385.6604919433595	1099.915405273438	-801.5640258789065	-303.8242492675782	830.9478759765627	-1064.063232421875	-274.6027526855469	750.9464111328126	-1073.082763671875	-227.4709777832032	752.7392578125001	-1070.013549804688	-304.7873229980469	697.9911499023439	-1059.87841796875	-309.4720764160157	543.9852294921876	-1055.161987304688	-263.7261047363282	520.2294921875001	-924.8157348632815	-270.7995910644532	373.8966674804688	-1029.771484375	-327.8696899414063	338.2014465332032	-1089.530639648438	-287.2448120117188	330.9139709472657	-1067.129516601563	-293.9799499511719	249.3684234619141	-1043.821166992188	-357.7057495117188	116.0753173828125	-1094.67138671875	-324.8048400878907	131.4183959960938	-1003.78076171875	-427.8624267578126	103.860336303711	-1040.620727539063	-215.8444824218751	57.04724502563478	-1020.374267578125	-208.8073730468751	55.23054122924806	-1070.091918945313	-260.8270263671876	39.76501846313477	-1120.952758789063	-295.5091857910157	755.3703613281251	-651.6198730468751	-266.1948547363282	696.5776367187501	-656.6684570312501	-233.0423736572266	693.9479370117189	-660.8043212890626	-303.1855773925782	624.7169799804689	-676.9674072265626	-327.0401000976563	531.9457397460939	-685.0181274414064	-274.5812377929688	533.8111572265626	-816.5065917968752	-274.8635864257813	423.416717529297	-694.5838012695314	-346.2445678710938	350.6272583007813	-663.7011108398439	-300.8208618164063	342.9462585449219	-672.3677368164064	-285.9219055175782	292.9691772460938	-697.2242431640626	-341.5066528320313	113.8595352172852	-682.2559814453126	-301.2840881347657	132.2485961914063	-767.0443725585939	-400.7121887207032	89.95135498046876	-744.0640258789064	-179.4820251464844	55.20197677612306	-752.4523925781251	-179.2546691894532	53.04330825805665	-704.7680664062501	-229.7865905761719	34.71439361572266	-658.1915893554689	
1298	6.485	-196.4732666015626	1777.984985351563	-834.1804199218752	-363.5012817382813	1730.072998046875	-901.5792236328127	-374.7001037597657	1728.392578125	-761.5296630859376	-402.5439453125001	1547.48779296875	-822.169128417969	-393.8802185058595	1216.54150390625	-830.043151855469	-253.0734863281251	1505.2939453125	-835.6021118164065	-338.0312805175782	1550.2275390625	-984.1770019531252	-194.5993347167969	1419.088745117188	-1112.81396484375	-159.2068328857422	1452.466186523438	-1103.441650390625	-127.7442474365235	1407.143798828125	-1128.4599609375	-67.9766082763672	1407.727661132813	-1127.746826171875	-68.02096557617189	1344.307739257813	-1078.263549804688	176.1994018554688	1446.317626953125	-1020.290771484375	204.0943756103516	1409.323974609375	-1083.268798828125	264.1247558593751	1478.207763671875	-1030.19873046875	-319.3081359863282	1547.392333984375	-680.7738647460939	-168.576644897461	1406.786743164063	-563.0996704101564	-131.3043212890625	1436.119384765625	-570.6127929687501	-101.8345184326172	1384.88232421875	-553.8379516601564	-56.36843109130861	1376.29638671875	-555.9076538085939	-61.6995086669922	1327.036499023438	-616.4631347656251	179.0386657714844	1474.181274414063	-688.8421630859376	198.2786254882813	1435.411987304688	-622.5180053710939	251.5755310058594	1515.05419921875	-681.0059204101564	-199.4693450927735	1062.236572265625	-970.893981933594	-183.9943542480469	1061.127197265625	-714.5637817382814	-385.4752502441407	1133.47607421875	-830.0828247070315	-390.7832336425782	1101.313110351563	-858.2343750000002	-385.722137451172	1099.985961914063	-801.7719726562502	-303.8077392578126	830.903747558594	-1064.209228515625	-274.4627990722657	750.8992309570314	-1073.223510742188	-227.4051818847657	752.7275390625001	-1070.111938476563	-305.1089477539063	698.0670166015626	-1060.2177734375	-309.4653930664063	543.9447631835939	-1055.276000976563	-263.7492370605469	520.2268066406251	-924.9459228515627	-270.8293457031251	373.8887023925782	-1029.859497070313	-327.9051818847657	338.1986389160157	-1089.61962890625	-287.2408447265626	330.8855590820313	-1067.148315429688	-294.0141296386719	249.3283386230469	-1043.893920898438	-357.6400451660157	116.0373153686524	-1094.694702148438	-324.5887451171876	131.3385620117188	-1004.135498046875	-427.5700683593751	103.6667861938477	-1040.72265625	-215.8459014892579	57.04681777954103	-1020.376586914063	-208.8654327392579	55.25519943237306	-1070.083129882813	-260.8299865722657	39.78648376464844	-1120.9482421875	-295.6463012695313	755.3821411132814	-651.8564453125001	-266.3987731933594	696.5775146484376	-656.7396850585939	-233.1386108398438	693.9590454101564	-660.9015502929689	-303.2457885742188	624.7335815429689	-677.1320800781251	-327.0664062500001	532.0036621093751	-685.2052612304689	-274.6088562011719	533.8055419921876	-816.6561279296877	-274.9198303222657	423.4476623535157	-694.6485595703126	-346.3504943847657	350.5988769531251	-663.8099975585939	-300.8241882324219	342.9617614746094	-672.4660034179689	-285.9392089843751	292.9759826660157	-697.2835083007814	-341.4913024902344	113.900016784668	-682.2664794921876	-301.2382507324219	132.2505798339844	-767.0333251953126	-400.6771240234376	89.94031524658205	-744.1031494140626	-179.4983673095703	55.17518615722658	-752.4653930664064	-179.2013092041016	53.06884384155275	-704.7573852539064	-229.8142547607422	34.77946472167969	-658.1812133789064	
1299	6.49	-196.6176452636719	1778.0048828125	-834.445007324219	-363.8810119628907	1730.041625976563	-901.7959594726565	-374.7554931640626	1728.402221679688	-761.7274169921876	-402.7338867187501	1547.436767578125	-822.4524536132815	-393.9610595703126	1216.55859375	-830.3139648437502	-253.2220306396485	1505.33154296875	-835.833923339844	-338.1695556640626	1550.181030273438	-984.3975219726565	-194.5415191650391	1419.088623046875	-1113.19677734375	-159.3616638183594	1452.47216796875	-1103.6494140625	-127.6409454345703	1407.185180664063	-1128.683715820313	-68.02296447753908	1407.756591796875	-1127.919067382813	-68.1096878051758	1344.193969726563	-1078.536743164063	175.9849853515625	1446.3603515625	-1020.380187988281	204.1085510253907	1409.438232421875	-1083.361938476563	263.9955749511719	1478.269775390625	-1030.320190429688	-319.4412841796876	1547.369995117188	-680.9837036132814	-168.7406463623047	1406.67529296875	-563.3493652343751	-131.4464874267578	1436.071411132813	-570.8335571289064	-102.0141983032227	1384.824951171875	-553.9832153320314	-56.61845016479494	1376.211059570313	-556.1128540039064	-61.87181091308595	1326.94677734375	-616.8403320312501	178.6871643066407	1474.172607421875	-688.9509277343751	198.1686553955079	1435.371826171875	-622.7406005859376	251.4594726562501	1515.052978515625	-681.2043457031251	-199.9126281738282	1062.32568359375	-971.1102294921877	-184.0592651367188	1061.154296875	-714.7047119140626	-385.5958251953126	1133.50390625	-830.2791748046877	-390.7112731933595	1101.2939453125	-858.5379028320315	-385.7804260253907	1099.947143554688	-801.9805908203127	-303.6810302734376	830.850280761719	-1064.427368164063	-274.4020385742188	750.9066772460939	-1073.39990234375	-227.2932434082032	752.6492309570314	-1070.246704101563	-304.8128967285157	697.9886474609376	-1060.249877929688	-309.3904724121094	543.9089965820314	-1055.4375	-263.7767028808594	520.2141113281251	-925.0201416015627	-270.8240051269532	373.8565673828126	-1029.945556640625	-327.6521301269532	338.1703796386719	-1089.690185546875	-287.2408447265626	330.8873291015626	-1067.155517578125	-294.0131530761719	249.3291473388672	-1043.8994140625	-357.6585083007813	116.0220565795899	-1094.76318359375	-324.5834045410157	131.3455657958985	-1004.152893066406	-427.8176269531251	103.8098068237305	-1040.605712890625	-215.8528137207032	57.04882812500001	-1020.381408691406	-208.8521118164063	55.21594619750978	-1070.107055664063	-260.8190307617188	39.76192092895509	-1120.970947265625	-295.7562255859376	755.4689941406251	-651.9364624023439	-266.4947204589844	696.6271972656251	-656.8326416015626	-233.2599182128907	693.9800415039064	-661.0413818359376	-303.2935485839844	624.7359619140626	-677.3422851562501	-327.1181335449219	532.0061035156251	-685.3551025390626	-274.5836486816407	533.7994995117189	-816.8093261718752	-274.9569702148438	423.4378051757814	-694.8092651367189	-346.4174499511719	350.6686401367188	-663.9451904296876	-300.8605041503907	342.9836730957032	-672.5482788085939	-285.9786682128907	292.9835510253907	-697.3276367187501	-341.4651489257813	113.9080505371094	-682.3176879882814	-301.2471008300782	132.2324371337891	-767.0658569335939	-400.678436279297	89.98450469970705	-744.1008300781251	-179.6558685302735	55.23876953125001	-752.4766235351564	-179.1739654541016	53.0683059692383	-704.7609252929689	-229.7635498046876	34.80778121948243	-658.1588134765626	
